<?xml version="1.0" encoding="utf-8" ?>
<svg baseProfile="tiny" height="1024" version="1.2" width="1024" xmlns="http://www.w3.org/2000/svg" xmlns:ev="http://www.w3.org/2001/xml-events" xmlns:xlink="http://www.w3.org/1999/xlink"><defs />
<path d="M 653,581 L 652,582 L 650,582 L 649,583 L 648,583 L 647,584 L 646,584 L 645,585 L 644,585 L 642,587 L 641,587 L 639,589 L 639,590 L 636,593 L 636,594 L 635,595 L 635,596 L 634,597 L 634,599 L 633,600 L 633,603 L 632,604 L 632,613 L 633,614 L 633,617 L 634,618 L 634,619 L 635,620 L 635,621 L 636,622 L 636,623 L 637,624 L 637,625 L 643,631 L 644,631 L 646,633 L 647,633 L 648,634 L 650,634 L 651,635 L 654,635 L 655,636 L 663,636 L 664,635 L 667,635 L 668,634 L 670,634 L 671,633 L 672,633 L 673,632 L 674,632 L 681,625 L 681,624 L 683,622 L 683,621 L 684,620 L 684,617 L 685,616 L 685,611 L 686,610 L 686,608 L 685,607 L 685,601 L 684,600 L 684,598 L 683,597 L 683,596 L 682,595 L 682,594 L 680,592 L 680,591 L 675,586 L 674,586 L 672,584 L 671,584 L 670,583 L 668,583 L 667,582 L 665,582 L 664,581 Z" fill="#FFF8DC" fill-rule="evenodd" stroke="#5C3A1E" stroke-width="3" />
<path d="M 356,346 L 357,345 L 377,345 L 378,346 L 383,346 L 384,347 L 388,347 L 389,348 L 392,348 L 393,349 L 395,349 L 396,350 L 398,350 L 399,351 L 401,351 L 402,352 L 404,352 L 405,353 L 406,353 L 407,354 L 408,354 L 409,355 L 411,355 L 412,356 L 413,356 L 414,357 L 415,357 L 417,359 L 418,359 L 419,360 L 420,360 L 422,362 L 423,362 L 426,365 L 427,365 L 431,369 L 432,369 L 442,379 L 442,380 L 446,384 L 446,385 L 449,388 L 449,389 L 451,391 L 451,392 L 452,393 L 452,394 L 453,395 L 453,396 L 455,398 L 455,399 L 456,399 L 457,400 L 458,400 L 459,401 L 463,401 L 464,400 L 466,400 L 469,397 L 469,396 L 471,394 L 471,393 L 473,391 L 473,390 L 475,388 L 475,387 L 478,384 L 478,383 L 483,378 L 483,377 L 487,373 L 488,373 L 494,367 L 495,367 L 498,364 L 499,364 L 500,363 L 501,363 L 503,361 L 504,361 L 506,359 L 507,359 L 508,358 L 509,358 L 510,357 L 511,357 L 512,356 L 513,356 L 514,355 L 515,355 L 516,354 L 518,354 L 519,353 L 520,353 L 521,352 L 523,352 L 524,351 L 526,351 L 527,350 L 530,350 L 531,349 L 534,349 L 535,348 L 539,348 L 540,347 L 546,347 L 547,346 L 569,346 L 570,347 L 575,347 L 576,348 L 580,348 L 581,349 L 584,349 L 585,350 L 587,350 L 588,351 L 590,351 L 591,352 L 592,352 L 593,353 L 595,353 L 596,354 L 597,354 L 598,355 L 600,355 L 601,356 L 602,356 L 603,357 L 604,357 L 605,358 L 606,358 L 608,360 L 609,360 L 610,361 L 611,361 L 613,363 L 614,363 L 616,365 L 617,365 L 622,370 L 623,370 L 633,380 L 633,381 L 637,385 L 637,386 L 640,389 L 640,390 L 642,392 L 642,393 L 644,395 L 644,396 L 646,398 L 646,399 L 647,400 L 647,401 L 648,402 L 648,403 L 649,404 L 649,405 L 652,408 L 653,408 L 654,409 L 659,409 L 660,408 L 661,408 L 665,404 L 665,403 L 667,401 L 667,400 L 668,399 L 668,398 L 671,395 L 671,394 L 674,391 L 674,390 L 679,385 L 679,384 L 683,380 L 684,380 L 688,376 L 689,376 L 692,373 L 693,373 L 694,372 L 695,372 L 696,371 L 697,371 L 699,369 L 700,369 L 701,368 L 702,368 L 703,367 L 704,367 L 705,366 L 706,366 L 707,365 L 708,365 L 709,364 L 711,364 L 712,363 L 713,363 L 714,362 L 716,362 L 717,361 L 719,361 L 720,360 L 723,360 L 724,359 L 727,359 L 728,358 L 733,358 L 734,357 L 744,357 L 745,356 L 748,356 L 749,357 L 759,357 L 760,358 L 765,358 L 766,359 L 769,359 L 770,360 L 772,360 L 773,361 L 775,361 L 776,362 L 778,362 L 779,363 L 781,363 L 782,364 L 783,364 L 784,365 L 786,365 L 787,366 L 788,366 L 790,368 L 791,368 L 792,369 L 793,369 L 794,370 L 795,370 L 797,372 L 798,372 L 800,374 L 801,374 L 804,377 L 805,377 L 807,379 L 808,379 L 817,388 L 817,389 L 822,394 L 822,395 L 824,397 L 824,398 L 827,401 L 827,402 L 828,403 L 828,404 L 830,406 L 830,407 L 831,408 L 831,410 L 832,411 L 832,412 L 835,415 L 836,415 L 837,416 L 843,416 L 844,415 L 845,415 L 846,414 L 847,414 L 848,413 L 849,413 L 850,412 L 851,412 L 852,411 L 855,411 L 856,410 L 860,410 L 861,409 L 864,409 L 865,408 L 867,408 L 868,407 L 871,407 L 872,406 L 889,406 L 890,407 L 894,407 L 895,408 L 898,408 L 899,409 L 901,409 L 902,410 L 904,410 L 905,411 L 907,411 L 908,412 L 909,412 L 910,413 L 911,413 L 912,414 L 913,414 L 914,415 L 915,415 L 916,416 L 917,416 L 918,417 L 919,417 L 920,418 L 921,418 L 923,420 L 924,420 L 927,423 L 928,423 L 930,425 L 931,425 L 948,442 L 948,443 L 950,445 L 950,446 L 952,448 L 952,449 L 954,451 L 954,452 L 955,453 L 955,454 L 956,455 L 956,456 L 957,457 L 957,458 L 958,459 L 958,460 L 959,461 L 959,463 L 960,464 L 960,465 L 961,466 L 961,469 L 962,470 L 962,473 L 963,474 L 963,478 L 964,479 L 964,483 L 965,484 L 965,488 L 966,489 L 966,512 L 965,513 L 965,517 L 964,518 L 964,521 L 963,522 L 963,524 L 962,525 L 962,528 L 961,529 L 961,530 L 960,531 L 960,533 L 959,534 L 959,535 L 958,536 L 958,537 L 956,539 L 956,540 L 955,541 L 955,542 L 953,544 L 953,545 L 950,548 L 950,549 L 941,558 L 940,558 L 937,561 L 936,561 L 935,562 L 934,562 L 933,563 L 932,563 L 931,564 L 930,564 L 929,565 L 928,565 L 927,566 L 924,566 L 923,567 L 920,567 L 919,568 L 906,568 L 905,567 L 900,567 L 899,566 L 897,566 L 896,565 L 894,565 L 893,564 L 891,564 L 890,563 L 889,563 L 888,562 L 887,562 L 886,561 L 885,561 L 884,560 L 882,560 L 881,559 L 880,559 L 879,558 L 877,558 L 876,557 L 873,557 L 872,556 L 857,556 L 856,557 L 853,557 L 852,558 L 851,558 L 850,559 L 848,559 L 847,560 L 846,560 L 845,561 L 844,561 L 843,562 L 842,562 L 840,564 L 839,564 L 837,566 L 836,566 L 834,568 L 833,568 L 830,571 L 829,571 L 826,574 L 825,574 L 822,577 L 821,577 L 819,579 L 818,579 L 817,580 L 816,580 L 814,582 L 813,582 L 812,583 L 811,583 L 810,584 L 808,584 L 807,585 L 806,585 L 805,586 L 804,586 L 803,587 L 802,587 L 801,588 L 799,588 L 798,589 L 797,589 L 796,590 L 793,590 L 792,591 L 788,591 L 787,592 L 777,592 L 776,591 L 767,591 L 766,590 L 762,590 L 761,589 L 757,589 L 756,588 L 754,588 L 753,587 L 752,587 L 751,586 L 749,586 L 747,584 L 746,584 L 745,583 L 744,583 L 743,582 L 742,582 L 741,581 L 740,581 L 738,579 L 737,579 L 734,576 L 733,576 L 729,572 L 728,572 L 715,559 L 715,558 L 712,555 L 712,554 L 709,551 L 709,550 L 703,544 L 703,543 L 702,543 L 696,537 L 695,537 L 693,535 L 692,535 L 690,533 L 689,533 L 688,532 L 687,532 L 686,531 L 685,531 L 684,530 L 682,530 L 681,529 L 680,529 L 679,528 L 677,528 L 676,527 L 673,527 L 672,526 L 668,526 L 667,525 L 658,525 L 657,524 L 656,525 L 647,525 L 646,526 L 641,526 L 640,527 L 637,527 L 636,528 L 634,528 L 633,529 L 631,529 L 630,530 L 629,530 L 628,531 L 627,531 L 626,532 L 625,532 L 624,533 L 623,533 L 622,534 L 621,534 L 618,537 L 617,537 L 613,541 L 612,541 L 605,548 L 605,549 L 594,560 L 593,560 L 588,565 L 587,565 L 585,567 L 584,567 L 582,569 L 581,569 L 580,570 L 579,570 L 578,571 L 577,571 L 576,572 L 575,572 L 574,573 L 573,573 L 572,574 L 571,574 L 570,575 L 568,575 L 567,576 L 565,576 L 564,577 L 562,577 L 561,578 L 557,578 L 556,579 L 550,579 L 549,580 L 538,580 L 537,579 L 531,579 L 530,578 L 526,578 L 525,577 L 523,577 L 522,576 L 520,576 L 519,575 L 517,575 L 516,574 L 515,574 L 514,573 L 512,573 L 511,572 L 510,572 L 509,571 L 508,571 L 507,570 L 506,570 L 504,568 L 503,568 L 502,567 L 501,567 L 499,565 L 498,565 L 494,561 L 493,561 L 490,558 L 489,558 L 486,555 L 485,555 L 483,553 L 482,553 L 480,551 L 479,551 L 477,549 L 476,549 L 475,548 L 474,548 L 473,547 L 472,547 L 471,546 L 470,546 L 469,545 L 467,545 L 466,544 L 465,544 L 464,543 L 461,543 L 460,542 L 458,542 L 457,541 L 451,541 L 450,540 L 437,540 L 436,541 L 432,541 L 431,542 L 428,542 L 427,543 L 424,543 L 423,544 L 422,544 L 421,545 L 420,545 L 419,546 L 418,546 L 417,547 L 416,547 L 415,548 L 414,548 L 412,550 L 411,550 L 409,552 L 408,552 L 395,565 L 395,566 L 391,570 L 390,570 L 386,574 L 385,574 L 383,576 L 382,576 L 380,578 L 379,578 L 378,579 L 377,579 L 376,580 L 375,580 L 374,581 L 373,581 L 372,582 L 371,582 L 370,583 L 368,583 L 367,584 L 365,584 L 364,585 L 362,585 L 361,586 L 359,586 L 358,587 L 355,587 L 354,588 L 350,588 L 349,589 L 342,589 L 341,590 L 329,590 L 328,589 L 323,589 L 322,588 L 319,588 L 318,587 L 316,587 L 315,586 L 313,586 L 312,585 L 311,585 L 310,584 L 308,584 L 307,583 L 306,583 L 305,582 L 304,582 L 303,581 L 302,581 L 301,580 L 300,580 L 298,578 L 297,578 L 296,577 L 295,577 L 292,574 L 291,574 L 286,569 L 285,569 L 277,561 L 276,561 L 273,558 L 272,558 L 270,556 L 269,556 L 268,555 L 267,555 L 266,554 L 265,554 L 264,553 L 263,553 L 262,552 L 261,552 L 260,551 L 258,551 L 257,550 L 254,550 L 253,549 L 249,549 L 248,548 L 233,548 L 232,549 L 227,549 L 226,550 L 224,550 L 223,551 L 221,551 L 220,552 L 218,552 L 217,553 L 215,553 L 214,554 L 213,554 L 212,555 L 211,555 L 209,557 L 208,557 L 207,558 L 206,558 L 204,560 L 203,560 L 201,562 L 200,562 L 194,568 L 193,568 L 184,577 L 183,577 L 178,582 L 177,582 L 174,585 L 173,585 L 172,586 L 171,586 L 169,588 L 168,588 L 167,589 L 166,589 L 165,590 L 164,590 L 163,591 L 162,591 L 161,592 L 159,592 L 158,593 L 156,593 L 155,594 L 153,594 L 152,595 L 149,595 L 148,596 L 143,596 L 142,597 L 125,597 L 124,596 L 119,596 L 118,595 L 114,595 L 113,594 L 110,594 L 109,593 L 107,593 L 106,592 L 104,592 L 103,591 L 102,591 L 101,590 L 99,590 L 98,589 L 97,589 L 96,588 L 95,588 L 94,587 L 93,587 L 91,585 L 90,585 L 89,584 L 88,584 L 86,582 L 85,582 L 82,579 L 81,579 L 68,566 L 68,565 L 66,563 L 66,562 L 64,560 L 64,559 L 62,557 L 62,556 L 61,555 L 61,554 L 60,553 L 60,552 L 59,551 L 59,550 L 58,549 L 58,547 L 57,546 L 57,544 L 56,543 L 56,541 L 55,540 L 55,537 L 54,536 L 54,532 L 53,531 L 53,510 L 54,509 L 54,504 L 55,503 L 55,500 L 56,499 L 56,497 L 57,496 L 57,494 L 58,493 L 58,492 L 59,491 L 59,490 L 61,488 L 61,487 L 62,486 L 62,485 L 64,483 L 64,482 L 72,474 L 73,474 L 75,472 L 76,472 L 77,471 L 78,471 L 79,470 L 80,470 L 81,469 L 83,469 L 84,468 L 86,468 L 87,467 L 89,467 L 90,466 L 92,466 L 93,465 L 94,465 L 96,463 L 96,462 L 97,461 L 97,459 L 98,458 L 98,449 L 99,448 L 99,443 L 100,442 L 100,438 L 101,437 L 101,434 L 102,433 L 102,431 L 103,430 L 103,428 L 104,427 L 104,425 L 105,424 L 105,423 L 106,422 L 106,421 L 107,420 L 107,419 L 108,418 L 108,417 L 109,416 L 109,415 L 110,414 L 110,413 L 112,411 L 112,410 L 115,407 L 115,406 L 119,402 L 119,401 L 124,396 L 125,396 L 131,390 L 132,390 L 135,387 L 136,387 L 139,384 L 140,384 L 142,382 L 143,382 L 144,381 L 145,381 L 147,379 L 148,379 L 149,378 L 150,378 L 151,377 L 152,377 L 153,376 L 154,376 L 155,375 L 156,375 L 157,374 L 158,374 L 159,373 L 161,373 L 162,372 L 164,372 L 165,371 L 167,371 L 168,370 L 170,370 L 171,369 L 174,369 L 175,368 L 179,368 L 180,367 L 186,367 L 187,366 L 200,366 L 201,367 L 207,367 L 208,368 L 212,368 L 213,369 L 216,369 L 217,370 L 219,370 L 220,371 L 222,371 L 223,372 L 225,372 L 226,373 L 227,373 L 228,374 L 229,374 L 230,375 L 231,375 L 232,376 L 234,376 L 236,378 L 237,378 L 238,379 L 239,379 L 241,381 L 242,381 L 244,383 L 245,383 L 249,387 L 250,387 L 261,398 L 261,399 L 263,401 L 263,402 L 264,402 L 266,404 L 273,404 L 274,403 L 275,403 L 278,400 L 278,397 L 279,396 L 279,395 L 280,394 L 280,393 L 281,392 L 281,391 L 283,389 L 283,388 L 285,386 L 285,385 L 287,383 L 287,382 L 293,376 L 293,375 L 298,370 L 299,370 L 303,366 L 304,366 L 307,363 L 308,363 L 309,362 L 310,362 L 312,360 L 313,360 L 315,358 L 316,358 L 317,357 L 318,357 L 319,356 L 320,356 L 321,355 L 322,355 L 323,354 L 324,354 L 325,353 L 327,353 L 328,352 L 329,352 L 330,351 L 332,351 L 333,350 L 336,350 L 337,349 L 339,349 L 340,348 L 343,348 L 344,347 L 348,347 L 349,346 Z" fill="#FFF8DC" fill-rule="evenodd" stroke="#5C3A1E" stroke-width="3" />
<path d="M 302,448 L 301,449 L 299,449 L 298,450 L 297,450 L 296,451 L 295,451 L 294,452 L 293,452 L 291,454 L 290,454 L 287,457 L 287,458 L 285,460 L 285,461 L 284,462 L 284,463 L 283,464 L 283,466 L 282,467 L 282,470 L 281,471 L 281,479 L 282,480 L 282,484 L 283,485 L 283,486 L 284,487 L 284,488 L 285,489 L 285,490 L 293,498 L 294,498 L 295,499 L 296,499 L 297,500 L 299,500 L 300,501 L 303,501 L 304,502 L 313,502 L 314,501 L 317,501 L 318,500 L 320,500 L 321,499 L 322,499 L 323,498 L 324,498 L 327,495 L 328,495 L 329,494 L 329,493 L 332,490 L 332,489 L 334,487 L 334,485 L 335,484 L 335,482 L 336,481 L 336,468 L 335,467 L 335,465 L 334,464 L 334,463 L 333,462 L 333,461 L 332,460 L 332,459 L 325,452 L 324,452 L 322,450 L 320,450 L 319,449 L 317,449 L 316,448 Z" fill="#FFF8DC" fill-rule="evenodd" stroke="#5C3A1E" stroke-width="3" />
<path d="M 372,393 L 371,394 L 369,394 L 368,395 L 367,395 L 366,396 L 365,396 L 362,399 L 361,399 L 360,400 L 360,401 L 357,404 L 357,405 L 356,406 L 356,407 L 355,408 L 355,410 L 354,411 L 354,413 L 353,414 L 353,427 L 354,428 L 354,430 L 355,431 L 355,432 L 356,433 L 356,434 L 357,435 L 357,436 L 359,438 L 359,439 L 363,443 L 364,443 L 366,445 L 367,445 L 368,446 L 369,446 L 370,447 L 373,447 L 374,448 L 386,448 L 387,447 L 389,447 L 390,446 L 392,446 L 394,444 L 395,444 L 398,441 L 399,441 L 399,440 L 402,437 L 402,436 L 403,435 L 403,434 L 404,433 L 404,432 L 405,431 L 405,428 L 406,427 L 406,414 L 405,413 L 405,410 L 404,409 L 404,408 L 403,407 L 403,406 L 401,404 L 401,403 L 397,399 L 396,399 L 393,396 L 392,396 L 391,395 L 389,395 L 388,394 L 386,394 L 385,393 Z" fill="#FFF8DC" fill-rule="evenodd" stroke="#5C3A1E" stroke-width="3" />
</svg>