<svg version="1.1" id="Layer_1" xmlns="http://www.w3.org/2000/svg" xmlns:xlink="http://www.w3.org/1999/xlink" x="0px" y="0px"
	 width="100%" viewBox="0 0 919 299" enable-background="new 0 0 919 299" xml:space="preserve">

<path fill="#FFFFFF" opacity="1.000000" stroke="black" stroke-width="6"
	d="
M301.232727,6.001990 
	C307.770660,5.666900 313.852570,5.163239 319.942352,5.035336 
	C332.655151,4.768331 344.602356,8.304774 356.332550,12.769057 
	C369.329407,17.715389 380.573212,25.414379 389.882050,35.601643 
	C394.988556,41.189995 399.457703,47.514084 403.345245,54.025276 
	C408.558350,62.756737 414.737335,63.275040 420.610077,54.951538 
	C425.285919,48.324417 429.622101,41.280205 435.253815,35.545307 
	C444.386566,26.245251 455.237366,19.061647 467.380432,13.995111 
	C483.523102,7.259800 500.466003,4.517026 517.688049,6.275330 
	C527.651184,7.292531 537.519226,10.510933 547.096375,13.731069 
	C560.263123,18.158155 571.616089,26.041504 580.658264,36.456696 
	C587.518616,44.358734 593.450073,53.200909 598.866394,62.184566 
	C604.073120,70.820595 610.180847,71.344742 616.060120,62.933441 
	C621.171143,55.621334 625.716980,47.470959 632.299072,41.744423 
	C640.235962,34.839130 649.728333,29.463970 659.147705,24.585531 
	C670.961426,18.466969 684.213196,16.426329 697.294373,16.268263 
	C709.404236,16.121935 721.497681,18.573187 732.808105,23.406708 
	C744.819885,28.539970 755.999268,35.205135 765.037720,44.712448 
	C772.171692,52.216442 778.653687,60.340046 782.678467,70.139183 
	C784.992188,75.772659 790.076355,77.371788 795.561646,74.801643 
	C809.177795,68.421738 823.503113,64.705383 838.536377,66.147400 
	C852.070862,67.445648 864.528381,72.819519 875.661621,80.436417 
	C886.797546,88.055183 896.430481,97.386482 903.687805,109.061142 
	C909.685913,118.710152 913.297180,129.121262 914.909424,140.204956 
	C916.038391,147.966614 916.897644,155.850189 916.890381,163.678391 
	C916.871155,184.350159 909.477539,202.276855 894.115601,216.155334 
	C883.269592,225.953918 870.154114,230.627533 855.379150,226.954330 
	C847.317810,224.950226 839.362366,222.260223 831.656067,219.145050 
	C817.873596,213.573639 804.916016,215.130035 792.691284,222.932053 
	C783.696533,228.672653 775.485779,235.712097 766.245300,240.978973 
	C755.458923,247.126968 744.117310,252.561401 731.069336,252.003403 
	C712.268127,251.199356 694.727661,246.614090 680.848816,233.169693 
	C671.696716,224.304062 663.226990,214.708984 654.764465,205.163284 
	C645.738281,194.981766 634.477722,188.656555 621.379822,186.135056 
	C605.091370,182.999374 588.976562,184.565536 574.635742,193.351913 
	C567.688354,197.608429 561.646912,203.635529 555.952026,209.585236 
	C542.983154,223.134445 528.622742,233.920410 509.803406,238.086746 
	C487.358429,243.055740 467.492310,237.023880 448.904297,224.943604 
	C439.822174,219.041199 431.536041,211.715561 421.993591,206.759338 
	C398.901001,194.765335 372.351410,198.698929 354.002411,217.594116 
	C345.014374,226.849701 336.584900,236.895554 324.036316,241.304352 
	C314.820862,244.542068 305.233521,246.876572 295.663269,248.916168 
	C277.267944,252.836533 261.139648,246.096710 245.909103,236.859024 
	C240.791885,233.755295 236.284973,229.498611 231.920883,225.327606 
	C219.262817,213.229584 204.423935,206.623032 186.845505,208.125519 
	C172.314407,209.367523 159.550964,215.403915 148.462051,224.996689 
	C137.761383,234.253555 128.034714,244.830811 114.740440,250.675522 
	C100.131020,257.098450 84.956223,258.645721 69.308449,255.681580 
	C55.615143,253.087677 43.159363,247.786667 32.173725,239.047195 
	C17.717743,227.546951 8.456731,212.875061 5.062650,194.734070 
	C2.834689,182.825867 3.073814,170.783569 6.482450,159.142181 
	C11.195477,143.045990 21.142212,131.774551 37.820278,126.967384 
	C47.876938,124.068726 48.240162,122.253075 49.134117,111.762962 
	C50.659149,93.867523 56.068130,77.205177 68.156059,63.389500 
	C83.395172,45.972218 102.174637,34.311909 124.725006,28.611876 
	C143.829315,23.782896 162.028061,26.220127 179.878769,33.943668 
	C191.125565,38.809879 200.787552,45.785233 209.119568,54.672241 
	C210.896454,56.567516 212.460846,58.684547 213.954926,60.817245 
	C216.243347,64.083809 219.804398,64.966194 222.895462,63.745399 
	C225.352783,62.774902 227.376633,59.990799 228.926331,57.582859 
	C232.488388,52.048077 235.040359,45.775852 239.079575,40.652210 
	C250.418289,26.269426 265.248291,16.583181 282.597595,10.871610 
	C288.547821,8.912742 294.713226,7.607473 301.232727,6.001990 
M326.744080,51.159107 
	C322.831329,52.365257 318.372101,52.747326 315.098877,54.917892 
	C299.589203,65.202820 297.591980,87.845291 310.154877,101.663116 
	C319.141296,111.547188 339.063629,112.852051 349.637268,103.322075 
	C358.724457,95.131859 362.409851,76.396751 355.399353,65.302795 
	C349.002533,55.180058 339.780762,50.238640 326.744080,51.159107 
M288.854645,136.343933 
	C288.282623,132.109406 288.622681,127.473305 286.968140,123.715393 
	C281.940247,112.295601 273.366150,105.904449 260.168915,106.028931 
	C250.299835,106.122017 242.180756,109.307831 236.230698,116.996651 
	C227.896454,127.766373 227.185028,145.663162 240.008606,156.530731 
	C249.764893,164.798874 260.455627,165.954010 271.607819,161.325409 
	C281.957123,157.030029 288.126862,148.880386 288.854645,136.343933 
z"/>


<path fill="#FFFFFF" opacity="1.000000"  stroke="black" stroke-width="6"
	d="
M630.318726,284.143097 
	C620.224182,297.937714 599.755066,296.015656 591.170593,285.994354 
	C584.622253,278.349945 582.900024,265.612366 587.757507,255.552353 
	C591.770813,247.240707 602.700012,241.699371 612.855774,242.827057 
	C622.870422,243.939041 631.397217,251.091568 633.634583,260.962006 
	C635.423523,268.853760 635.220215,276.708710 630.318726,284.143097 
z"/>
<path fill="#FFFFFF" opacity="1.000000" stroke="none" 
	d="
M344.980469,102.164108 
	C335.196411,108.186180 323.011566,107.531021 314.272308,100.705994 
	C307.557098,95.461678 303.920441,81.865631 306.789093,72.729256 
	C310.176392,61.941048 317.130859,55.448093 325.906189,54.880886 
	C338.870514,54.042908 348.298676,58.729530 352.908875,68.577904 
	C357.094116,77.518501 356.560455,94.248665 344.980469,102.164108 
z"/>
<path fill="#FFFFFF" opacity="1.000000"  stroke="none" 
	d="
M234.867035,141.756592 
	C231.536530,131.980377 237.799072,117.097069 245.811127,113.265945 
	C257.696411,107.582756 270.749847,108.723816 278.950439,117.326973 
	C285.776428,124.488052 287.354431,138.335831 282.352325,147.180832 
	C276.927521,156.773376 265.179535,161.791489 254.674423,159.610962 
	C244.605530,157.520966 237.907928,152.047592 234.867035,141.756592 
z"/>
</svg>